<svg xmlns="http://www.w3.org/2000/svg" width="23.876" height="23.901" viewBox="0 0 23.876 23.901">
  <g id="download_27_" data-name="download (27)" transform="translate(-169.045 -168.82)">
    <path id="Path_49" data-name="Path 49" d="M178.635,168.82a2.569,2.569,0,0,0-2.558,2.558v.85H169.9a.854.854,0,1,0,0,1.707h1.529l1.017,15.074a3.873,3.873,0,0,0,3.768,3.712h9.534a3.873,3.873,0,0,0,3.768-3.712l1.02-15.074h1.526a.854.854,0,1,0,0-1.707h-6.176v-.85a2.569,2.569,0,0,0-2.558-2.558Zm0,1.707h4.7a.828.828,0,0,1,.85.85v.85h-6.4v-.85a.834.834,0,0,1,.857-.85Zm-5.5,3.408h15.7l-1.01,14.954a2.108,2.108,0,0,1-2.068,2.124h-9.534a2.109,2.109,0,0,1-2.068-2.124Z" transform="translate(0)" fill="#c4acfc"/>
    <path id="Path_50" data-name="Path 50" d="M317.7,316.73a.854.854,0,0,0-.851.857v8.532a.854.854,0,1,0,1.708,0v-8.532a.854.854,0,0,0-.857-.857Z" transform="translate(-139.279 -139.378)" fill="#c4acfc"/>
    <path id="Path_51" data-name="Path 51" d="M406.408,316.73a.854.854,0,0,0-.857.857v8.532a.854.854,0,1,0,1.708,0v-8.532a.854.854,0,0,0-.851-.857Z" transform="translate(-222.864 -139.378)" fill="#c4acfc"/>
  </g>
</svg>
