<svg xmlns="http://www.w3.org/2000/svg" width="20.973" height="20.973" viewBox="0 0 20.973 20.973">
  <g id="download_26_" data-name="download (26)" transform="translate(-229.196 -229.189)">
    <path id="Path_47" data-name="Path 47" d="M316.639,229.189a3.86,3.86,0,0,0-2.747,1.137l-7.043,7.046a6.382,6.382,0,0,0-1.884,4.546v2.831H307.8a6.384,6.384,0,0,0,4.543-1.884l7.05-7.043a3.887,3.887,0,0,0-2.75-6.633Zm1.313,5.2-7.043,7.046a4.371,4.371,0,0,1-3.112,1.289H307v-.8a4.37,4.37,0,0,1,1.289-3.109l7.046-7.046a1.857,1.857,0,0,1,2.625,2.625Z" transform="translate(-70.357)" fill="#c4acfc"/>
    <path id="Path_48" data-name="Path 48" d="M232.917,267.752H245.1a3.721,3.721,0,0,0,3.721-3.721v-5.412h-2.03v5.412a1.691,1.691,0,0,1-1.691,1.691H232.917a1.692,1.692,0,0,1-1.691-1.691V251.853a1.691,1.691,0,0,1,1.691-1.691h5.412v-2.03h-5.412a3.721,3.721,0,0,0-3.721,3.721v12.178a3.721,3.721,0,0,0,3.721,3.721Z" transform="translate(0 -17.59)" fill="#c4acfc"/>
  </g>
</svg>
