<svg xmlns="http://www.w3.org/2000/svg" width="254.026" height="86.085" viewBox="0 0 254.026 86.085">
  <g id="logo" transform="translate(-32.14 -42.46)">
    <g id="Group_2" data-name="Group 2" transform="translate(32.259 102.974)">
      <path id="Path_15" data-name="Path 15" d="M38.761,169.032V151.525H32.35v-2H47.263v2H40.851v17.508Z" transform="translate(-32.35 -149.236)" fill="#606060"/>
      <path id="Path_16" data-name="Path 16" d="M70.871,173.358H68.838v-3.152a5.757,5.757,0,0,1-5.52,3.43,7.061,7.061,0,0,1,0-14.106,5.739,5.739,0,0,1,5.52,3.4v-3.123h2.033ZM63.7,171.711a5.142,5.142,0,0,0,0-10.284,5.142,5.142,0,0,0,0,10.284Z" transform="translate(-42.829 -153.562)" fill="#606060"/>
      <path id="Path_17" data-name="Path 17" d="M88.2,174.339h1.982c.057,1.9,2.033,3.067,4.458,3.067,2.732,0,4.765-1.755,4.765-4.378v-2.981a5.754,5.754,0,0,1-5.52,3.373,6.943,6.943,0,0,1,0-13.879,5.737,5.737,0,0,1,5.52,3.345v-3.067h2.033v13.129c0,3.765-2.845,6.19-6.746,6.19C91.685,179.132,88.317,177.655,88.2,174.339Zm6.076-2.817a5.057,5.057,0,1,0,0-10.114,5.057,5.057,0,1,0,0,10.114Z" transform="translate(-56.039 -153.566)" fill="#606060"/>
      <path id="Path_18" data-name="Path 18" d="M143.794,168.816l-2.732-2.873c-1.982,2.061-3.708,3.152-6.133,3.152a5.214,5.214,0,0,1-5.349-5.27c0-3.038,2-4.458,4.208-5.52a6.663,6.663,0,0,1-2.289-4.571,4.735,4.735,0,0,1,4.963-4.713,4.654,4.654,0,0,1,4.793,4.713c0,2.788-2.033,4.072-4.208,5.1l4.043,4.293,2.567-2.538h2.732l-3.93,3.958,4.015,4.265h-2.68Zm-8.694-1.755c1.5,0,2.788-.727,4.322-2.289l.278-.278-4.543-4.765c-1.868.92-3.43,1.925-3.43,3.958A3.267,3.267,0,0,0,135.1,167.062Zm.585-9.62c1.954-.892,3.623-1.84,3.623-3.765a2.792,2.792,0,0,0-2.845-2.788,2.9,2.9,0,0,0-3.038,2.788C133.425,155.017,134.515,156.215,135.685,157.442Z" transform="translate(-74.365 -149.02)" fill="#606060"/>
      <path id="Path_19" data-name="Path 19" d="M188.478,149.516v2H179.67v6.3h7.86v2h-7.86v9.2h-2.09V149.51h10.9Z" transform="translate(-95.106 -149.232)" fill="#606060"/>
      <path id="Path_20" data-name="Path 20" d="M201.608,149.62a1.462,1.462,0,1,1,0,2.925,1.462,1.462,0,0,1,0-2.925Zm1,5.906v13.55h-2.033v-13.55Z" transform="translate(-104.863 -149.279)" fill="#606060"/>
      <path id="Path_21" data-name="Path 21" d="M213.383,162.455a4.906,4.906,0,0,1,4.628-2.925c3.487,0,5.713,2.311,5.713,6.02v7.8h-2.033v-7.61a3.949,3.949,0,0,0-4.1-4.293,4,4,0,0,0-4.208,4.293v7.61H211.35V159.8h2.033Z" transform="translate(-109.699 -153.562)" fill="#606060"/>
      <path id="Path_22" data-name="Path 22" d="M245.3,155.2a5.739,5.739,0,0,1,5.52,3.4V149.52h2.033v19.512h-2.033v-3.152a5.756,5.756,0,0,1-5.52,3.43,7.061,7.061,0,0,1,0-14.106Zm5.52,7.025a4.981,4.981,0,0,0-5.128-5.128,5.142,5.142,0,0,0,0,10.284A4.984,4.984,0,0,0,250.818,162.229Z" transform="translate(-121.465 -149.236)" fill="#606060"/>
      <path id="Path_23" data-name="Path 23" d="M297.142,169.032h-2.289l-1.9-4.765h-9.228l-1.9,4.765H279.6l7.808-19.512h1.9Zm-4.963-6.775-3.822-9.643-3.816,9.643Z" transform="translate(-139.191 -149.236)" fill="#606060"/>
      <path id="Path_24" data-name="Path 24" d="M316.593,162.455a4.906,4.906,0,0,1,4.628-2.925c3.487,0,5.713,2.311,5.713,6.02v7.8H324.9v-7.61a3.949,3.949,0,0,0-4.1-4.293,4,4,0,0,0-4.208,4.293v7.61H314.56V159.8h2.033Z" transform="translate(-154.298 -153.562)" fill="#606060"/>
      <path id="Path_25" data-name="Path 25" d="M344.755,173.32l-5.605-13.3h2.2l4.429,10.926,4.458-10.926h2.175L344.585,178.7H342.41Z" transform="translate(-164.923 -153.773)" fill="#606060"/>
      <path id="Path_26" data-name="Path 26" d="M366.8,166.183v-7.11H364.13v-1.9H366.8V153.44h2.033v3.737h3.793v1.9h-3.793v7.081c0,2.061,1.113,2.817,2.845,2.817a3.473,3.473,0,0,0,.948-.114v1.868a6.4,6.4,0,0,1-1.312.142C368.565,170.863,366.8,169.358,366.8,166.183Z" transform="translate(-175.718 -150.93)" fill="#606060"/>
      <path id="Path_27" data-name="Path 27" d="M386.143,149.52v8.615a4.906,4.906,0,0,1,4.628-2.925c3.487,0,5.713,2.311,5.713,6.02v7.8h-2.033v-7.61a3.949,3.949,0,0,0-4.1-4.293,4,4,0,0,0-4.208,4.293v7.61H384.11V149.52h2.033Z" transform="translate(-184.351 -149.236)" fill="#606060"/>
      <path id="Path_28" data-name="Path 28" d="M413.478,149.62a1.462,1.462,0,1,1,0,2.925,1.462,1.462,0,0,1,0-2.925Zm1.005,5.906v13.55H412.45v-13.55Z" transform="translate(-196.416 -149.279)" fill="#606060"/>
      <path id="Path_29" data-name="Path 29" d="M425.267,162.455a4.906,4.906,0,0,1,4.628-2.925c3.487,0,5.713,2.311,5.713,6.02v7.8h-2.033v-7.61a3.948,3.948,0,0,0-4.094-4.293,4,4,0,0,0-4.208,4.293v7.61H423.24V159.8h2.033v2.652Z" transform="translate(-201.26 -153.562)" fill="#606060"/>
      <path id="Path_30" data-name="Path 30" d="M451.494,174.339h1.982c.057,1.9,2.033,3.067,4.458,3.067,2.732,0,4.765-1.755,4.765-4.378v-2.981a5.754,5.754,0,0,1-5.52,3.373,6.943,6.943,0,0,1,0-13.879,5.737,5.737,0,0,1,5.52,3.345v-3.067h2.033v13.129c0,3.765-2.845,6.19-6.746,6.19C454.975,179.132,451.6,177.655,451.494,174.339Zm6.076-2.817a5.057,5.057,0,1,0,0-10.114,5.057,5.057,0,1,0,0,10.114Z" transform="translate(-213.022 -153.566)" fill="#606060"/>
    </g>
    <g id="Group_3" data-name="Group 3" transform="translate(32.14 42.46)">
      <path id="Path_31" data-name="Path 31" d="M449.06,73.2a7.666,7.666,0,0,0-7.78,6.065h14.935A6.885,6.885,0,0,0,449.06,73.2Z" transform="translate(-208.936 -55.743)" fill="none"/>
      <path id="Path_32" data-name="Path 32" d="M43.867,51.54H37.461v7.5H32.14V65.1h5.321V76.487c0,7.1,4.123,10.875,10.3,10.875a17.237,17.237,0,0,0,3.436-.341V81.127a8.2,8.2,0,0,1-2.061.227c-3.089,0-5.264-1.431-5.264-4.98V65.1H51.2V59.036H43.872v-7.5Z" transform="translate(-32.14 -46.384)" fill="#e7abfa"/>
      <path id="Path_33" data-name="Path 33" d="M92.776,69.341a10.863,10.863,0,0,0-9.955-5.611c-7.5,0-13.391,6.468-13.391,14.538s5.895,14.595,13.391,14.595a10.857,10.857,0,0,0,9.955-5.611v5.037h6.411V64.3H92.776Zm3.555,17.116a1.142,1.142,0,0,1-1.584.278L90.692,83.89A8.522,8.522,0,1,1,84.184,69.8a8.322,8.322,0,0,1,8.524,8.467,8.88,8.88,0,0,1-.8,3.7l4.14,2.908A1.126,1.126,0,0,1,96.331,86.457Z" transform="translate(-48.254 -51.651)" fill="#e7abfa"/>
      <path id="Path_34" data-name="Path 34" d="M154.446,69.165a10.938,10.938,0,0,0-9.955-5.435c-7.5,0-13.391,6.292-13.391,14.135s5.895,14.191,13.391,14.191a10.879,10.879,0,0,0,9.955-5.491v2h-.057v2.919c0,4.293-3.606,7.155-8.013,7.155-4,0-7.326-1.772-7.5-4.867h-6.355c.341,7.842,8.41,10.188,14.021,10.188,8.126,0,14.248-4.867,14.248-12.7V89.489h.057V64.3H154.44v4.861Zm4.31,17.292a1.142,1.142,0,0,1-1.584.278l-4.827-3.39a8.557,8.557,0,0,1-6.485,2.822,8.271,8.271,0,1,1,0-16.537,8.2,8.2,0,0,1,8.524,8.24,8.386,8.386,0,0,1-.8,3.578l4.884,3.43A1.123,1.123,0,0,1,158.756,86.457Z" transform="translate(-74.902 -51.651)" fill="#e7abfa"/>
      <path id="Path_35" data-name="Path 35" d="M200.873,53.738c0-2.976,2.692-4.924,6.752-4.924,4.35,0,7.155,2.629,7.269,6.235h6.866c0-6.752-4.691-12.59-13.907-12.59-7.842,0-13.561,4.748-13.561,11.329,0,14.708,22.091,8.927,22.091,17.911,0,3.379-3.2,5.667-7.723,5.667-4.8,0-8.24-2.919-8.24-7.212H193.78c0,7.837,6.292,13.5,14.879,13.5,8.24,0,14.362-5.037,14.362-11.96C223.02,56.2,200.873,62.092,200.873,53.738Z" transform="translate(-101.987 -42.46)" fill="#b9acfc"/>
      <path id="Path_36" data-name="Path 36" d="M271.55,63.73a10.857,10.857,0,0,0-9.955,5.611V64.3H255.24v37.77h6.355V87.252a10.863,10.863,0,0,0,9.955,5.611c7.5,0,13.391-6.468,13.391-14.538S279.046,63.73,271.55,63.73Zm-1.369,23.062a8.461,8.461,0,0,1-6.593-2.987l-4.18,2.925a1.137,1.137,0,1,1-1.306-1.863l4.288-3a8.751,8.751,0,0,1-.738-3.544,8.332,8.332,0,0,1,8.524-8.524,8.5,8.5,0,0,1,.006,16.991Z" transform="translate(-128.545 -51.651)" fill="#b9acfc"/>
      <path id="Path_37" data-name="Path 37" d="M336.736,69.341a10.863,10.863,0,0,0-9.955-5.611c-7.5,0-13.391,6.468-13.391,14.538s5.895,14.595,13.391,14.595a10.857,10.857,0,0,0,9.955-5.611v5.037h6.411V64.3h-6.411Zm4.447,16.082a1.134,1.134,0,0,1-1.55.415l-4.475-2.584a8.569,8.569,0,1,1,1.528-4.986,8.985,8.985,0,0,1-.5,2.959l4.583,2.646A1.138,1.138,0,0,1,341.182,85.423Z" transform="translate(-153.673 -51.651)" fill="#b9acfc"/>
      <path id="Path_38" data-name="Path 38" d="M389.545,86.739a8.443,8.443,0,0,1,0-16.877c3.316,0,6.179,1.891,6.866,4.464h6.525c-.858-6.065-6.639-10.585-13.391-10.585a14.566,14.566,0,0,0,0,29.132c6.809,0,12.7-4.464,13.447-10.818h-6.525C395.781,84.854,392.862,86.739,389.545,86.739Z" transform="translate(-180.326 -51.655)" fill="#b9acfc"/>
      <path id="Path_39" data-name="Path 39" d="M458.126,77.415A13.483,13.483,0,0,0,444.509,63.74a14.567,14.567,0,0,0,.119,29.132c6.809,0,12.187-3.833,13.164-9.785H451.5c-.574,2.629-3.316,4.35-6.923,4.35a8.2,8.2,0,0,1-8.467-7.61h21.915C458.07,79.186,458.126,77.983,458.126,77.415Zm-21.687-2.232a7.666,7.666,0,0,1,7.78-6.065,6.88,6.88,0,0,1,7.155,6.065Z" transform="translate(-204.101 -51.655)" fill="#b9acfc"/>
    </g>
  </g>
</svg>
