<svg xmlns="http://www.w3.org/2000/svg" width="54.377" height="55.367" viewBox="0 0 54.377 55.367">
  <g id="download_25_" data-name="download (25)" transform="translate(-187.831 -184.593)">
    <path id="Path_42" data-name="Path 42" d="M219.559,239.959h-9.166a6.091,6.091,0,0,1-6.092-6.092,1.793,1.793,0,0,0-.911-1.594,1.736,1.736,0,0,0-1.822,0,6.036,6.036,0,0,1-4.64.626,6.205,6.205,0,0,1-3.7-2.847l-4.583-7.942a6.092,6.092,0,0,1,2.22-8.312,1.793,1.793,0,0,0,.939-1.594,1.764,1.764,0,0,0-.911-1.566,6.12,6.12,0,0,1-2.248-8.341l4.583-7.942a6.206,6.206,0,0,1,3.7-2.846,5.947,5.947,0,0,1,4.611.769,1.851,1.851,0,0,0,2.847-1.566,6.092,6.092,0,0,1,6.092-6.12h9.166a6.091,6.091,0,0,1,6.092,6.092,1.794,1.794,0,0,0,.911,1.594,1.738,1.738,0,0,0,1.822,0,6.035,6.035,0,0,1,4.64-.627,6.205,6.205,0,0,1,3.7,2.847l4.583,7.942a6.091,6.091,0,0,1-2.221,8.312,1.794,1.794,0,0,0-.939,1.594,1.766,1.766,0,0,0,.911,1.566,6.121,6.121,0,0,1,2.249,8.341L236.81,230.2a6.205,6.205,0,0,1-3.7,2.847,5.951,5.951,0,0,1-4.612-.627,1.85,1.85,0,0,0-2.846,1.566,6.093,6.093,0,0,1-6.092,5.978ZM202.48,227.747a6.113,6.113,0,0,1,3.046.826,6.031,6.031,0,0,1,3.046,5.266,1.85,1.85,0,0,0,1.822,1.85h9.166a1.821,1.821,0,0,0,1.822-1.821,6.062,6.062,0,0,1,3.046-5.295,5.976,5.976,0,0,1,6.092,0,1.822,1.822,0,0,0,2.5-.655l4.726-7.942a1.794,1.794,0,0,0-.655-2.477,6.092,6.092,0,0,1,0-10.561,1.822,1.822,0,0,0,.655-2.5l-4.726-7.942a1.852,1.852,0,0,0-1.11-.854,1.767,1.767,0,0,0-1.367.2,6.12,6.12,0,0,1-9.166-5.266,1.85,1.85,0,0,0-1.822-1.851h-9.166a1.822,1.822,0,0,0-1.822,1.822,6.062,6.062,0,0,1-3.046,5.295,5.979,5.979,0,0,1-6.092,0,1.822,1.822,0,0,0-2.5.655l-4.583,7.942A1.793,1.793,0,0,0,193,206.91a6.092,6.092,0,0,1,0,10.561,1.822,1.822,0,0,0-.684,2.5l4.583,7.942a1.849,1.849,0,0,0,1.11.854,1.764,1.764,0,0,0,1.367-.2,6.289,6.289,0,0,1,3.1-.826Z" transform="translate(0 0)"/>
    <path id="Path_43" data-name="Path 43" d="M312.679,323.354a10.676,10.676,0,1,1,7.548-3.127A10.675,10.675,0,0,1,312.679,323.354Zm0-17.079h0a6.4,6.4,0,1,0,4.529,1.876,6.408,6.408,0,0,0-4.529-1.876Z" transform="translate(-97.702 -100.474)"/>
  </g>
</svg>
