<svg xmlns="http://www.w3.org/2000/svg" xmlns:xlink="http://www.w3.org/1999/xlink" width="54.362" height="54.362" viewBox="0 0 54.362 54.362">
  <defs>
    <clipPath id="clip-path">
      <path id="Path_41" data-name="Path 41" d="M139.21,139.21h54.362v54.362H139.21Z" fill="#fff"/>
    </clipPath>
  </defs>
  <g id="download_23_" data-name="download (23)" transform="translate(-139.21 -139.21)" clip-path="url(#clip-path)">
    <path id="Path_40" data-name="Path 40" d="M171.7,188.659l16.98-16.987-27.913-27.925H143.741v16.944Zm20.862-19.511a3.65,3.65,0,0,1,0,5.048l-18.294,18.3a3.589,3.589,0,0,1-5.136,0l-28.836-28.849a3.274,3.274,0,0,1-1.082-2.524v-18.3a3.616,3.616,0,0,1,3.6-3.606H161.2a3.557,3.557,0,0,1,2.524,1.082ZM152.8,159.6a6.8,6.8,0,1,1,6.8-6.8A6.8,6.8,0,0,1,152.8,159.6Zm0-4.53a2.265,2.265,0,1,0-2.265-2.265A2.265,2.265,0,0,0,152.8,155.073Z" transform="translate(-0.002 -0.007)" fill="#fff"/>
  </g>
</svg>
